{
	"patcher" : 	{
		"fileversion" : 1,
		"appversion" : 		{
			"major" : 8,
			"minor" : 1,
			"revision" : 1,
			"architecture" : "x64",
			"modernui" : 1
		}
,
		"classnamespace" : "box",
		"rect" : [ 109.0, 154.0, 640.0, 480.0 ],
		"bglocked" : 0,
		"openinpresentation" : 0,
		"default_fontsize" : 12.0,
		"default_fontface" : 0,
		"default_fontname" : "Arial",
		"gridonopen" : 1,
		"gridsize" : [ 15.0, 15.0 ],
		"gridsnaponopen" : 1,
		"objectsnaponopen" : 1,
		"statusbarvisible" : 2,
		"toolbarvisible" : 1,
		"lefttoolbarpinned" : 0,
		"toptoolbarpinned" : 0,
		"righttoolbarpinned" : 0,
		"bottomtoolbarpinned" : 0,
		"toolbars_unpinned_last_save" : 0,
		"tallnewobj" : 0,
		"boxanimatetime" : 200,
		"enablehscroll" : 1,
		"enablevscroll" : 1,
		"devicewidth" : 0.0,
		"description" : "",
		"digest" : "",
		"tags" : "",
		"style" : "",
		"subpatcher_template" : "",
		"boxes" : [ 			{
				"box" : 				{
					"id" : "obj-85",
					"maxclass" : "button",
					"numinlets" : 1,
					"numoutlets" : 1,
					"outlettype" : [ "bang" ],
					"parameter_enable" : 0,
					"patching_rect" : [ 834.457726061344147, 642.0, 24.0, 24.0 ]
				}

			}
, 			{
				"box" : 				{
					"id" : "obj-67",
					"maxclass" : "dict.view",
					"numinlets" : 1,
					"numoutlets" : 0,
					"patching_rect" : [ 531.0, 698.0, 246.971817374229431, 237.0 ]
				}

			}
, 			{
				"box" : 				{
					"data" : 					{
						"date" : 						{
							"year" : 2020,
							"month" : 6,
							"day" : 14
						}
,
						"time" : 						{
							"hours" : 15,
							"minutes" : 2,
							"seconds" : 46
						}
,
						"data_rate" : 224,
						"data" : 						{
							"0" : [ -568151, -486861, -987219, -878470, -1232227, -908256, -1120893, -21305 ],
							"1" : [ -568100, -483448, -987012, -879194, -1232227, -908049, -1120789, -21357 ],
							"2" : [ -567944, -486603, -987323, -879039, -1232072, -907791, -1120841, -21409 ],
							"3" : [ -567996, -484121, -987581, -880591, -1232486, -907429, -1120738, -21512 ],
							"4" : [ -567789, -485982, -987116, -878884, -1232072, -908256, -1121151, -21357 ],
							"5" : [ -568100, -484844, -987529, -880487, -1232486, -907687, -1120789, -21305 ],
							"6" : [ -568306, -485051, -987012, -878729, -1232175, -908256, -1120893, -21409 ],
							"7" : [ -568462, -484741, -987064, -879039, -1232175, -907843, -1121151, -21098 ],
							"8" : [ -568255, -485620, -986857, -879039, -1232124, -907791, -1120893, -21357 ],
							"9" : [ -568668, -484896, -987167, -878988, -1232330, -907946, -1121151, -21150 ],
							"10" : [ -568306, -485465, -987012, -879143, -1232072, -907843, -1121100, -21357 ],
							"11" : [ -568100, -484586, -987478, -879039, -1232020, -908153, -1120841, -21409 ],
							"12" : [ -568306, -485517, -987012, -878832, -1232072, -908308, -1121048, -21616 ],
							"13" : [ -568668, -484896, -987219, -879246, -1232330, -908101, -1120893, -21305 ],
							"14" : [ -568513, -485465, -987167, -878832, -1232124, -907687, -1120893, -21409 ],
							"15" : [ -568410, -485413, -987271, -879143, -1232124, -907894, -1120996, -21254 ],
							"16" : [ -568358, -484844, -987219, -879143, -1232279, -908049, -1120789, -21409 ],
							"17" : [ -568255, -485103, -987012, -878832, -1232227, -908360, -1121048, -21564 ],
							"18" : [ -568306, -485465, -987064, -878936, -1232124, -908308, -1121151, -21305 ],
							"19" : [ -568306, -485517, -987064, -879246, -1231969, -908205, -1120841, -21512 ],
							"20" : [ -568565, -485051, -987064, -879298, -1232124, -908153, -1121048, -21254 ],
							"21" : [ -568306, -485258, -986857, -878781, -1232124, -908205, -1120893, -21150 ],
							"22" : [ -568306, -485465, -987219, -878832, -1232072, -908205, -1121048, -21460 ],
							"23" : [ -568462, -485672, -987012, -878832, -1232124, -907894, -1121048, -21512 ],
							"24" : [ -568513, -485620, -987323, -879401, -1231969, -908256, -1121203, -21305 ],
							"25" : [ -568410, -485568, -987064, -878832, -1232330, -908360, -1120841, -21305 ],
							"26" : [ -568255, -485413, -986961, -878884, -1232124, -908205, -1120893, -21202 ],
							"27" : [ -568255, -485206, -987271, -879039, -1231969, -908101, -1121462, -21357 ],
							"28" : [ -568410, -485258, -987064, -879246, -1231969, -908360, -1121151, -21305 ],
							"29" : [ -568513, -485568, -987012, -879091, -1232020, -907843, -1121462, -21357 ],
							"30" : [ -568513, -485517, -987323, -878936, -1232124, -908360, -1120996, -21667 ],
							"31" : [ -568462, -485775, -987064, -879091, -1231969, -908308, -1120738, -21409 ],
							"32" : [ -568358, -485620, -987323, -879246, -1232072, -907791, -1121100, -21305 ],
							"33" : [ -568410, -485827, -987219, -878988, -1232124, -908256, -1121100, -21305 ],
							"34" : [ -568203, -484017, -987426, -879143, -1232279, -908256, -1120996, -21616 ],
							"35" : [ -568306, -484638, -987012, -878729, -1231969, -908360, -1121048, -21357 ],
							"36" : [ -568617, -487327, -987426, -878988, -1232072, -907791, -1120738, -21409 ],
							"37" : [ -568306, -483707, -986909, -879350, -1232227, -908153, -1121048, -21409 ],
							"38" : [ -568151, -487068, -987374, -879246, -1232072, -907791, -1121203, -21409 ],
							"39" : [ -568203, -482880, -987116, -878729, -1232227, -908153, -1120996, -21616 ]
						}

					}
,
					"id" : "obj-72",
					"linecount" : 2,
					"maxclass" : "newobj",
					"numinlets" : 2,
					"numoutlets" : 4,
					"outlettype" : [ "dictionary", "", "", "" ],
					"patching_rect" : [ 894.457726061344147, 726.0, 123.0, 35.0 ],
					"saved_object_attributes" : 					{
						"embed" : 1,
						"parameter_enable" : 0,
						"parameter_mappable" : 0
					}
,
					"text" : "dict data_2 @embed 1"
				}

			}
, 			{
				"box" : 				{
					"id" : "obj-65",
					"maxclass" : "newobj",
					"numinlets" : 3,
					"numoutlets" : 0,
					"patcher" : 					{
						"fileversion" : 1,
						"appversion" : 						{
							"major" : 8,
							"minor" : 1,
							"revision" : 1,
							"architecture" : "x64",
							"modernui" : 1
						}
,
						"classnamespace" : "box",
						"rect" : [ 109.0, 154.0, 640.0, 480.0 ],
						"bglocked" : 0,
						"openinpresentation" : 0,
						"default_fontsize" : 12.0,
						"default_fontface" : 0,
						"default_fontname" : "Arial",
						"gridonopen" : 1,
						"gridsize" : [ 15.0, 15.0 ],
						"gridsnaponopen" : 1,
						"objectsnaponopen" : 1,
						"statusbarvisible" : 2,
						"toolbarvisible" : 1,
						"lefttoolbarpinned" : 0,
						"toptoolbarpinned" : 0,
						"righttoolbarpinned" : 0,
						"bottomtoolbarpinned" : 0,
						"toolbars_unpinned_last_save" : 0,
						"tallnewobj" : 0,
						"boxanimatetime" : 200,
						"enablehscroll" : 1,
						"enablevscroll" : 1,
						"devicewidth" : 0.0,
						"description" : "",
						"digest" : "",
						"tags" : "",
						"style" : "",
						"subpatcher_template" : "",
						"boxes" : [ 							{
								"box" : 								{
									"id" : "obj-42",
									"maxclass" : "newobj",
									"numinlets" : 1,
									"numoutlets" : 1,
									"outlettype" : [ "" ],
									"patching_rect" : [ 157.0, 297.0, 99.0, 22.0 ],
									"text" : "prepend set_rate"
								}

							}
, 							{
								"box" : 								{
									"id" : "obj-41",
									"maxclass" : "button",
									"numinlets" : 1,
									"numoutlets" : 1,
									"outlettype" : [ "bang" ],
									"parameter_enable" : 0,
									"patching_rect" : [ 144.0, 353.0, 24.0, 24.0 ]
								}

							}
, 							{
								"box" : 								{
									"id" : "obj-6",
									"maxclass" : "newobj",
									"numinlets" : 1,
									"numoutlets" : 1,
									"outlettype" : [ "" ],
									"patching_rect" : [ 50.0, 172.0, 118.0, 22.0 ],
									"text" : "if $i1 == 1 then bang"
								}

							}
, 							{
								"box" : 								{
									"id" : "obj-195",
									"maxclass" : "newobj",
									"numinlets" : 1,
									"numoutlets" : 1,
									"outlettype" : [ "" ],
									"patching_rect" : [ 267.0, 297.0, 111.0, 22.0 ],
									"text" : "prepend write_data"
								}

							}
, 							{
								"box" : 								{
									"id" : "obj-181",
									"maxclass" : "newobj",
									"numinlets" : 1,
									"numoutlets" : 1,
									"outlettype" : [ "" ],
									"patching_rect" : [ 446.0, 297.0, 102.0, 22.0 ],
									"text" : "prepend set_date"
								}

							}
, 							{
								"box" : 								{
									"id" : "obj-89",
									"maxclass" : "newobj",
									"numinlets" : 1,
									"numoutlets" : 1,
									"outlettype" : [ "" ],
									"patching_rect" : [ 351.0, 100.0, 97.0, 22.0 ],
									"text" : "prepend set_dict"
								}

							}
, 							{
								"box" : 								{
									"id" : "obj-87",
									"maxclass" : "newobj",
									"numinlets" : 1,
									"numoutlets" : 1,
									"outlettype" : [ "" ],
									"patching_rect" : [ 351.0, 377.0, 121.0, 22.0 ],
									"saved_object_attributes" : 									{
										"filename" : "record_playback.js",
										"parameter_enable" : 0
									}
,
									"text" : "js record_playback.js"
								}

							}
, 							{
								"box" : 								{
									"id" : "obj-22",
									"maxclass" : "newobj",
									"numinlets" : 0,
									"numoutlets" : 1,
									"outlettype" : [ "" ],
									"patching_rect" : [ 258.0, 176.0, 65.0, 22.0 ],
									"text" : "r dict_data"
								}

							}
, 							{
								"box" : 								{
									"id" : "obj-178",
									"maxclass" : "newobj",
									"numinlets" : 0,
									"numoutlets" : 1,
									"outlettype" : [ "" ],
									"patching_rect" : [ 182.0, 172.0, 74.0, 22.0 ],
									"text" : "r metro_rate"
								}

							}
, 							{
								"box" : 								{
									"id" : "obj-158",
									"maxclass" : "button",
									"numinlets" : 1,
									"numoutlets" : 1,
									"outlettype" : [ "bang" ],
									"parameter_enable" : 0,
									"patching_rect" : [ 439.028182625770569, 231.5, 24.0, 24.0 ]
								}

							}
, 							{
								"box" : 								{
									"comment" : "",
									"id" : "obj-44",
									"index" : 1,
									"maxclass" : "inlet",
									"numinlets" : 0,
									"numoutlets" : 1,
									"outlettype" : [ "" ],
									"patching_rect" : [ 50.0, 40.0, 30.0, 30.0 ]
								}

							}
, 							{
								"box" : 								{
									"comment" : "",
									"id" : "obj-59",
									"index" : 2,
									"maxclass" : "inlet",
									"numinlets" : 0,
									"numoutlets" : 1,
									"outlettype" : [ "" ],
									"patching_rect" : [ 351.0, 40.0, 30.0, 30.0 ]
								}

							}
, 							{
								"box" : 								{
									"comment" : "",
									"id" : "obj-63",
									"index" : 3,
									"maxclass" : "inlet",
									"numinlets" : 0,
									"numoutlets" : 1,
									"outlettype" : [ "bang" ],
									"patching_rect" : [ 439.028197999999975, 40.0, 30.0, 30.0 ]
								}

							}
 ],
						"lines" : [ 							{
								"patchline" : 								{
									"destination" : [ "obj-181", 0 ],
									"source" : [ "obj-158", 0 ]
								}

							}
, 							{
								"patchline" : 								{
									"destination" : [ "obj-42", 0 ],
									"source" : [ "obj-178", 0 ]
								}

							}
, 							{
								"patchline" : 								{
									"destination" : [ "obj-87", 0 ],
									"source" : [ "obj-195", 0 ]
								}

							}
, 							{
								"patchline" : 								{
									"destination" : [ "obj-195", 0 ],
									"source" : [ "obj-22", 0 ]
								}

							}
, 							{
								"patchline" : 								{
									"destination" : [ "obj-87", 0 ],
									"source" : [ "obj-41", 0 ]
								}

							}
, 							{
								"patchline" : 								{
									"destination" : [ "obj-87", 0 ],
									"source" : [ "obj-42", 0 ]
								}

							}
, 							{
								"patchline" : 								{
									"destination" : [ "obj-6", 0 ],
									"source" : [ "obj-44", 0 ]
								}

							}
, 							{
								"patchline" : 								{
									"destination" : [ "obj-89", 0 ],
									"source" : [ "obj-59", 0 ]
								}

							}
, 							{
								"patchline" : 								{
									"destination" : [ "obj-41", 0 ],
									"source" : [ "obj-6", 0 ]
								}

							}
, 							{
								"patchline" : 								{
									"destination" : [ "obj-158", 0 ],
									"source" : [ "obj-63", 0 ]
								}

							}
 ]
					}
,
					"patching_rect" : [ 680.457726061344147, 222.0, 96.0, 22.0 ],
					"saved_object_attributes" : 					{
						"description" : "",
						"digest" : "",
						"globalpatchername" : "",
						"tags" : ""
					}
,
					"text" : "p record_data_2"
				}

			}
, 			{
				"box" : 				{
					"id" : "obj-197",
					"maxclass" : "button",
					"numinlets" : 1,
					"numoutlets" : 1,
					"outlettype" : [ "bang" ],
					"parameter_enable" : 0,
					"patching_rect" : [ 675.457726061344147, 0.0, 24.0, 24.0 ]
				}

			}
, 			{
				"box" : 				{
					"id" : "obj-194",
					"maxclass" : "newobj",
					"numinlets" : 1,
					"numoutlets" : 1,
					"outlettype" : [ "" ],
					"patching_rect" : [ 684.457726061344147, 96.0, 70.0, 22.0 ],
					"text" : "loadmess 0"
				}

			}
, 			{
				"box" : 				{
					"id" : "obj-186",
					"maxclass" : "button",
					"numinlets" : 1,
					"numoutlets" : 1,
					"outlettype" : [ "bang" ],
					"parameter_enable" : 0,
					"patching_rect" : [ 362.457726061344147, 677.0, 24.0, 24.0 ]
				}

			}
, 			{
				"box" : 				{
					"id" : "obj-160",
					"maxclass" : "dict.view",
					"numinlets" : 1,
					"numoutlets" : 0,
					"patching_rect" : [ 0.0, 708.0, 246.971817374229431, 237.0 ]
				}

			}
, 			{
				"box" : 				{
					"data" : 					{
						"date" : 						{
							"year" : 2020,
							"month" : 6,
							"day" : 14
						}
,
						"time" : 						{
							"hours" : 15,
							"minutes" : 2,
							"seconds" : 26
						}
,
						"data_rate" : 224,
						"data" : 						{
							"0" : [ -568358, -485465, -987064, -878781, -1232124, -907739, -1121203, -21460 ],
							"1" : [ -568668, -486137, -987374, -879143, -1232124, -908308, -1120738, -21305 ],
							"2" : [ -568203, -485155, -987012, -878108, -1232124, -908101, -1120945, -21460 ],
							"3" : [ -568462, -485827, -987426, -879453, -1232330, -907946, -1120841, -21357 ],
							"4" : [ -568410, -484534, -986805, -878884, -1232020, -908256, -1120996, -21409 ],
							"5" : [ -568306, -485465, -987116, -878936, -1232124, -908256, -1121100, -21357 ],
							"6" : [ -568255, -485517, -986909, -878884, -1232330, -908256, -1121048, -21305 ],
							"7" : [ -568565, -485930, -987012, -878781, -1232072, -908256, -1120841, -21305 ],
							"8" : [ -568306, -485258, -987116, -878729, -1232124, -908256, -1121048, -21409 ],
							"9" : [ -568358, -485258, -986909, -878936, -1232227, -908308, -1120893, -21305 ],
							"10" : [ -568513, -485672, -987271, -879143, -1232330, -907843, -1120634, -21564 ],
							"11" : [ -568410, -485155, -987012, -879039, -1231969, -908256, -1121255, -21564 ],
							"12" : [ -568255, -485517, -987323, -878832, -1232124, -908153, -1120738, -21771 ],
							"13" : [ -568255, -484121, -987012, -879246, -1232330, -908101, -1121048, -21305 ],
							"14" : [ -568306, -486448, -987374, -879350, -1232279, -907636, -1121151, -21512 ],
							"15" : [ -568358, -485568, -987323, -879039, -1232072, -908256, -1120945, -21822 ],
							"16" : [ -568358, -485362, -986961, -878988, -1232382, -907843, -1121048, -21305 ],
							"17" : [ -568255, -485620, -987064, -879350, -1232537, -908049, -1121048, -21202 ],
							"18" : [ -568100, -485620, -987167, -879298, -1232279, -907946, -1120789, -21305 ],
							"19" : [ -568255, -485517, -987219, -879246, -1232227, -908049, -1120738, -21357 ],
							"20" : [ -568255, -484121, -987012, -878936, -1232330, -908205, -1121048, -21771 ]
						}

					}
,
					"id" : "obj-159",
					"maxclass" : "newobj",
					"numinlets" : 2,
					"numoutlets" : 4,
					"outlettype" : [ "dictionary", "", "", "" ],
					"patching_rect" : [ 363.457726061344147, 736.0, 129.0, 22.0 ],
					"saved_object_attributes" : 					{
						"embed" : 1,
						"parameter_enable" : 0,
						"parameter_mappable" : 0
					}
,
					"text" : "dict data_1 @embed 1"
				}

			}
, 			{
				"box" : 				{
					"id" : "obj-1",
					"items" : [ "data_1", ",", "data_2" ],
					"maxclass" : "umenu",
					"numinlets" : 1,
					"numoutlets" : 3,
					"outlettype" : [ "int", "", "" ],
					"parameter_enable" : 0,
					"patching_rect" : [ 678.457726061344147, 152.0, 100.0, 22.0 ]
				}

			}
 ],
		"lines" : [ 			{
				"patchline" : 				{
					"destination" : [ "obj-65", 1 ],
					"source" : [ "obj-1", 1 ]
				}

			}
, 			{
				"patchline" : 				{
					"destination" : [ "obj-160", 0 ],
					"source" : [ "obj-159", 0 ]
				}

			}
, 			{
				"patchline" : 				{
					"destination" : [ "obj-159", 0 ],
					"source" : [ "obj-186", 0 ]
				}

			}
, 			{
				"patchline" : 				{
					"destination" : [ "obj-1", 0 ],
					"source" : [ "obj-194", 0 ]
				}

			}
, 			{
				"patchline" : 				{
					"destination" : [ "obj-1", 0 ],
					"order" : 1,
					"source" : [ "obj-197", 0 ]
				}

			}
, 			{
				"patchline" : 				{
					"destination" : [ "obj-65", 2 ],
					"order" : 0,
					"source" : [ "obj-197", 0 ]
				}

			}
, 			{
				"patchline" : 				{
					"destination" : [ "obj-67", 0 ],
					"source" : [ "obj-72", 0 ]
				}

			}
, 			{
				"patchline" : 				{
					"destination" : [ "obj-72", 0 ],
					"source" : [ "obj-85", 0 ]
				}

			}
 ],
		"dependency_cache" : [  ],
		"autosave" : 0
	}

}
